# xmcd
#
# Track frame offsets:
#	150
#	20523
#	40059
#	55643
#	71042
#	85830
#	102668
#	117005
#	131502
#	152604
#
# Disc length: 2277 seconds
#
# Revision: 0
# Processed by: cddbd v1.5.2PL0 Copyright (c) Steve Scherf et al.
# Submitted via: dBpowerAMP V4.0
#
DISCID=7b08e30a
DTITLE=Karen Shayne - Dream
DYEAR=2000
DGENRE=Country
TTITLE0=Get Up Get Out
TTITLE1=This Wall
TTITLE2=Should've Known Better
TTITLE3=Tears on My Face
TTITLE4=A Satisfied Me
TTITLE5=Heart to Love
TTITLE6=Don't Know Much
TTITLE7=What I've Always Wanted
TTITLE8=Black Velvet
TTITLE9=Live the Dream
EXTD=
EXTT0=
EXTT1=
EXTT2=
EXTT3=
EXTT4=
EXTT5=
EXTT6=
EXTT7=
EXTT8=
EXTT9=
PLAYORDER=
